<?xml version="1.0" encoding="utf-8"?>
<!-- Generator: Adobe Illustrator 21.1.0, SVG Export Plug-In . SVG Version: 6.00 Build 0)  -->
<svg version="1.1" xmlns="http://www.w3.org/2000/svg" xmlns:xlink="http://www.w3.org/1999/xlink" x="0" y="0"
	 viewBox="0 0 200 100" width="100" height="50" style="enable-background:new 0 0 200 100;" xml:space="preserve">
<style type="text/css">
	.st0{fill:#FFFFFF;}
</style>
<g id="Layer_1">
	<path class="st0" d="M0,0v100h200V0H0z M110.3,87.4c-2.7,3.6-7,5.4-12.7,5.4c-1.3,0-2.7-0.1-4.3-0.4C90.2,92,89,91.6,86,90.1
		c1.1-2.5,1.4-3.4,1.9-6.4c2,1.7,2.9,2.4,4.4,3.1c2.1,1.1,4.4,1.6,6.6,1.6c5.1,0,8.6-2.9,8.6-7.2c0-2.1-1.1-3.9-3.3-5.4
		c-1.5-1-2.4-1.5-5.7-3c-3.2-1.5-4.4-2.1-6-3.2c-3-2.1-4.4-4.8-4.4-8.6c0-3.2,1.3-6.3,3.4-8.5c2.4-2.4,5.5-3.5,10-3.5
		c2.1,0,4.1,0.3,6.1,0.7c1.5,0.3,2.2,0.6,4.1,1.3c-0.6,1.1-0.8,1.5-1.1,2.5c-0.4,1.3-0.6,1.8-0.9,3.2c-2.4-1.7-3.5-2.2-5.6-2.9
		c-1.3-0.4-3-0.7-4.1-0.7c-3.9,0-6.5,2.4-6.5,6.1c0,1.9,0.9,3.6,2.5,4.9c1.4,1.1,2.3,1.5,8.3,4.5c4.3,2.1,6.1,3.5,7.3,5.4
		c1,1.5,1.5,3.5,1.5,5.5C113,82.4,112.1,84.9,110.3,87.4z M143.6,55.6c-1.2-0.2-2.1-0.3-2.7-0.3c-2.3-0.3-5-0.4-6.7-0.4h-6.8
		l-0.1,2.5v10.1h7.5c2.9,0,4.1-0.1,7.6-0.6c-0.3,1.7-0.3,2.4-0.3,3.2c0,0.7,0.1,1.7,0.2,3c-4-0.5-5.7-0.6-8.3-0.6h-6.7v5.4
		c0,7.6,0,8.6,0.4,14.1c-1.8-0.2-3.1-0.3-4-0.3c-0.8,0-1.8,0.1-3.3,0.2c0.3-2.6,0.4-4.6,0.5-5.9c0.1-1.5,0.1-4.4,0.1-9V59.7
		c-0.1-3.2-0.2-5.2-0.4-10.2l4.3,0.1l7.5,0.1h6.5c1.5,0,2.3,0,4.8-0.3c-0.3,1.6-0.3,2.3-0.3,3.2C143.4,53.3,143.5,54.3,143.6,55.6z
		 M189.2,51.4c-0.1,1-0.1,2.9-0.1,5.6c-0.1,3.5-0.1,5.7-0.1,6.5l0.1,10c0,10.3-1,13.1-5.4,16.2c-3,2.2-6.5,3-12,3
		c-5.9,0-9.2-0.8-12.1-2.9c-1.6-1.1-2.9-2.4-3.8-3.9c-1.5-2.4-1.7-3.7-1.7-9.7L154,61.1v-6.4c-0.1-2-0.1-2.9-0.4-5.3
		c1.6,0.2,2.9,0.3,3.7,0.3c0.8,0,2-0.1,3.6-0.3c-0.3,2.5-0.4,3.4-0.5,5.7c0,0.4-0.1,1.4-0.1,3c-0.1,1.6-0.1,2.8-0.1,3.5v13
		c0.1,6.6,0.1,7.4,1.4,9.3c1.6,2.3,5.8,4,10.3,4c3.2,0,5.5-0.5,7.7-1.8c1.1-0.7,2-1.5,2.5-2.2c1.3-2,1.5-3.5,1.5-10.5v-9.9
		c0-3.4-0.1-6.4-0.3-9c-0.1-1.9-0.2-2.8-0.4-5c1.4,0.1,2.5,0.3,3.2,0.3c0.7,0,1.8-0.1,3.2-0.3C189.3,50.3,189.2,51,189.2,51.4z"/>
</g>
</svg>
