<?xml version="1.0" encoding="utf-8"?>
<!-- Generator: Adobe Illustrator 21.1.0, SVG Export Plug-In . SVG Version: 6.00 Build 0)  -->
<svg version="1.1" id="Layer_2" xmlns="http://www.w3.org/2000/svg" xmlns:xlink="http://www.w3.org/1999/xlink" x="0px" y="0px"
	 viewBox="0 0 1080 1080" style="enable-background:new 0 0 1080 1080;" xml:space="preserve">
<style type="text/css">
	.st0{enable-background:new    ;}
	.st1{fill:#FFFFFF;}
</style>
<g class="st0">
	<path class="st1" d="M58.4,88.4h381.3c83.1,0,145.3,24,186.6,72.1c41.4,48.1,62,116.5,62,205.2c0,91.2-22.5,162.5-67.6,213.8
		c-45.1,51.4-113.9,77-206.4,77H288.8v335.2H58.4V88.4z M288.8,473.6H345c44.2,0,75.3-9.3,93.2-28c17.9-18.7,26.8-42.6,26.8-71.8
		c0-28.3-7.8-52.4-23.3-72.1c-15.5-19.7-44.7-29.6-87.6-29.6h-65.3V473.6z"/>
	<path class="st1" d="M465.1,88.2h567.2v194.1H695.5v157.7h287.7v182.4H695.5v369.1H465.1V88.2z"/>
</g>
</svg>
